<?xml version="1.0" standalone="no"?>
<svg xmlns:xlink="http://www.w3.org/1999/xlink" id="wave" style="transform:rotate(0deg); transition: 0.3s" viewBox="0 0 1440 130" version="1.1" xmlns="http://www.w3.org/2000/svg"><defs><linearGradient id="sw-gradient-0" x1="0" x2="0" y1="1" y2="0"><stop stop-color="rgba(176, 129, 69, 1)" offset="0%"/><stop stop-color="rgba(25, 34, 51, 1)" offset="100%"/></linearGradient></defs><path style="transform:translate(0, 0px); opacity:1" fill="url(#sw-gradient-0)" d="M0,65L34.3,56.3C68.6,48,137,30,206,36.8C274.3,43,343,74,411,78C480,82,549,61,617,45.5C685.7,30,754,22,823,34.7C891.4,48,960,82,1029,84.5C1097.1,87,1166,56,1234,54.2C1302.9,52,1371,78,1440,91C1508.6,104,1577,104,1646,91C1714.3,78,1783,52,1851,47.7C1920,43,1989,61,2057,75.8C2125.7,91,2194,104,2263,91C2331.4,78,2400,39,2469,39C2537.1,39,2606,78,2674,91C2742.9,104,2811,91,2880,91C2948.6,91,3017,104,3086,110.5C3154.3,117,3223,117,3291,114.8C3360,113,3429,108,3497,97.5C3565.7,87,3634,69,3703,69.3C3771.4,69,3840,87,3909,95.3C3977.1,104,4046,104,4114,86.7C4182.9,69,4251,35,4320,19.5C4388.6,4,4457,9,4526,17.3C4594.3,26,4663,39,4731,52C4800,65,4869,78,4903,84.5L4937.1,91L4937.1,130L4902.9,130C4868.6,130,4800,130,4731,130C4662.9,130,4594,130,4526,130C4457.1,130,4389,130,4320,130C4251.4,130,4183,130,4114,130C4045.7,130,3977,130,3909,130C3840,130,3771,130,3703,130C3634.3,130,3566,130,3497,130C3428.6,130,3360,130,3291,130C3222.9,130,3154,130,3086,130C3017.1,130,2949,130,2880,130C2811.4,130,2743,130,2674,130C2605.7,130,2537,130,2469,130C2400,130,2331,130,2263,130C2194.3,130,2126,130,2057,130C1988.6,130,1920,130,1851,130C1782.9,130,1714,130,1646,130C1577.1,130,1509,130,1440,130C1371.4,130,1303,130,1234,130C1165.7,130,1097,130,1029,130C960,130,891,130,823,130C754.3,130,686,130,617,130C548.6,130,480,130,411,130C342.9,130,274,130,206,130C137.1,130,69,130,34,130L0,130Z"/></svg>